<?xml version="1.0" encoding="utf-8"?>
<!-- Generator: Adobe Illustrator 25.2.0, SVG Export Plug-In . SVG Version: 6.00 Build 0)  -->
<svg version="1.1" id="Слой_1" xmlns="http://www.w3.org/2000/svg" xmlns:xlink="http://www.w3.org/1999/xlink" x="0px" y="0px"
	 viewBox="0 0 50.2 50.2" style="enable-background:new 0 0 50.2 50.2;" xml:space="preserve">
<style type="text/css">
	.st0{fill:#1D1D1B;}
</style>
<path class="st0" d="M50.2,24.3L50.2,24.3c-5.2,0-9.6-5.6-10.9-9.3l-1.4,0.5c0.8,2.3,2.2,4.5,3.9,6.2c1,1,2.2,1.8,3.5,2.3l0,0
	c0.1,0,0.1,0.1,0.1,0.1c0,0.1-0.1,0.1-0.1,0.1H0v1.5h45.3c0.1,0,0.1,0,0.1,0.1c0,0.1,0,0.1-0.1,0.1l0,0l0,0
	c-1.3,0.5-2.5,1.3-3.5,2.3c-1.8,1.8-3.1,3.9-3.9,6.2l1.4,0.5c2.3-6.3,7.9-9.3,10.9-9.3V24.3L50.2,24.3z"/>
</svg>
